:SAMPLES-PER-SECOND 30
:FULLY-SPECIFIED
:DEGREES
66
root  25.09444379 39.50155664 33.24133205 -7.230319977 4.09581995 3.990410089
lowerback  10.48279953 0.8276389837 -4.864150047
upperback  1.716650009 0.596848011 0.8824639916
thorax  -4.144460201 0.3698050082 3.582819939
lowerneck  -15.50160027 -5.779419899 -15.67749977
upperneck  27.26889992 -6.165840149 7.938970089
head  12.37110043 -3.404350042 4.730450153
lclavicle  0 -5.34481991e-014 2.981770104e-014
lhumerus  -41.93099976 12.43299961 80.12619781
lradius  -2.943568295e-031 -1.950448598e-031 33.52899933
lwrist  0 -3.531125038e-031 1.708140016
lhand  -7.228730171e-031 -12.32040024 30.08370018
lfingers  90 7.125020027 -90
lthumb  93.54475345 14.18202994 75.81070317
rclavicle  0 -5.34481991e-014 2.981770104e-014
rhumerus  -33.86320114 -7.851180077 -79.21759796
rradius  3.069259741e-031 1.745992177e-031 29.63400078
rwrist  1.059337512e-030 -3.531125038e-031 5.717130184
rhand  -0 -17.83839989 11.80280018
rfingers  -90 -7.125020027 -90
rthumb  -85.73163422 -26.67632084 -80.56124738
rfemur  -19.87509918 -7.790070057 13.94740009
rtibia  -0 0 71.87650299
rfoot  -0 -1.351330042 -8.28442955
rtoes  2.971983249 19.78689825 -98.71921657
lfemur  -0.321175009 3.827769995 -26.82889938
ltibia  -0 0 25.49869919
lfoot  -0 -12.88829994 -6.707429886
ltoes  -5.675592087 -19.20949023 -106.8072013
67
root  25.09622198 39.45755546 33.54533338 -7.123330116 4.393859863 3.856790066
lowerback  10.51179981 0.6393510103 -4.876180172
upperback  1.667500019 0.3490009904 1.01315999
thorax  -4.188469887 0.2502470016 3.761909962
lowerneck  -15.46380043 -5.741990089 -15.77540016
upperneck  27.13509941 -6.129489899 8.085120201
head  12.31280041 -3.378249884 4.807089806
lclavicle  0 -5.34481991e-014 2.981770104e-014
lhumerus  -41.35609818 12.13210011 80.42019653
lradius  -2.927159618e-031 -1.974988761e-031 34.00799942
lwrist  -1.059337512e-030 -3.531125038e-031 2.044620037
lhand  -7.199236407e-031 -11.19499969 31.02440071
lfingers  90 7.125020027 -90
lthumb  94.05359717 14.94563619 74.63537225
rclavicle  0 -5.34481991e-014 2.981770104e-014
rhumerus  -33.84579849 -8.492300034 -78.83799744
rradius  3.087120866e-031 1.714213754e-031 29.04249954
rwrist  7.062250077e-031 -3.531125038e-031 5.359539986
rhand  -0 -17.86319923 11.1552
rfingers  -90 -7.125020027 -90
rthumb  -85.86166326 -26.03828195 -80.64037948
rfemur  -20.88850021 -8.022549629 14.22799969
rtibia  -0 0 70.97270203
rfoot  -0 -2.924849987 -8.534950256
rtoes  2.705230394 19.82362594 -97.93193802
lfemur  0.001676960033 3.583110094 -26.69739914
ltibia  -0 0 25.74690056
lfoot  9.079982282e-032 -13.53479958 -6.573760033
ltoes  -5.604818247 -19.22953958 -106.5922066
68
root  25.09516618 39.43244453 33.85399946 -7.055160046 4.503560066 3.56272006
lowerback  10.41329956 0.5050849915 -4.716060162
upperback  1.732550025 0.2025679946 1.185649991
thorax  -4.050799847 0.1716279984 3.872469902
lowerneck  -15.59150028 -5.699019909 -15.88770008
upperneck  27.02980042 -6.073919773 8.302459717
head  12.29950047 -3.333570004 4.916759968
lclavicle  0 -5.34481991e-014 2.981770104e-014
lhumerus  -40.76499939 11.76439953 80.77120209
lradius  -2.900863749e-031 -2.013413407e-031 34.76350021
lwrist  -1.059337512e-030 -3.531125038e-031 2.486079931
lhand  -7.196662909e-031 -11.0909996 31.29879951
lfingers  90 7.125020027 -90
lthumb  94.15405961 15.19584897 74.51274431
rclavicle  0 -5.34481991e-014 2.981770104e-014
rhumerus  -33.75450134 -9.055480003 -78.42829895
rradius  3.108730791e-031 1.674705021e-031 28.3118
rwrist  1.412450015e-030 -0 5.763380051
rhand  -0 -18.0802002 10.68490028
rfingers  -90 -7.125020027 -90
rthumb  -86.04794556 -25.58054782 -80.90956347
rfemur  -21.81520081 -7.990059853 14.7638998
rtibia  -0 0 69.85350037
rfoot  -0 -4.468550205 -9.007189751
rtoes  2.392433409 19.86221105 -97.01045382
lfemur  0.4249759912 3.457350016 -26.3689003
ltibia  -0 0 25.93040085
lfoot  4.552781115e-032 -14.18799973 -6.324530125
ltoes  -5.688835155 -19.20570797 -106.8474548
69
root  25.09511062 39.39355565 34.16444373 -7.04433012 4.811769962 3.600950003
lowerback  10.3519001 0.3483639956 -4.899680138
upperback  1.848309994 -0.01702399924 1.269279957
thorax  -3.872659922 0.05847200006 4.093850136
lowerneck  -15.76490021 -5.655920029 -15.80160046
upperneck  26.96459961 -5.972000122 8.197870255
head  12.2869997 -3.28647995 4.873529911
lclavicle  0 -5.34481991e-014 2.981770104e-014
lhumerus  -40.31600189 11.30930042 81.10559845
lradius  -2.867784232e-031 -2.060256692e-031 35.69400024
lwrist  -7.062250077e-031 -3.531125038e-031 2.801130056
lhand  -7.198161845e-031 -11.15170002 31.15320015
lfingers  90 7.125020027 -90
lthumb  94.09928531 15.0639687 74.58346338
rclavicle  0 -5.34481991e-014 2.981770104e-014
rhumerus  -33.67480087 -9.480239868 -78.09459686
rradius  3.124548481e-031 1.645004811e-031 27.76580048
rwrist  7.062250077e-031 -3.531125038e-031 6.02670002
rhand  3.727274093e-031 -18.67060089 11.66250038
rfingers  -90 -7.125020027 -90
rthumb  -86.16308773 -26.56418172 -81.47085908
rfemur  -22.57979965 -8.147339821 14.8586998
rtibia  -0 0 68.59120178
rfoot  -0 -5.857110023 -9.471229553
rtoes  2.208359928 19.8826687 -96.46894889
lfemur  1.005660057 3.260200024 -26.38949966
ltibia  -0 0 25.95899963
lfoot  4.56201541e-032 -14.63969994 -6.297009945
ltoes  -5.166584178 -19.34759268 -105.2655888
70
root  25.10088823 39.33955515 34.48489031 -6.996310234 5.326749802 4.068490028
lowerback  10.47049999 0.1853010058 -5.427639961
upperback  1.826069951 -0.3029080033 1.169199944
thorax  -3.928179979 -0.07503850013 4.328340054
lowerneck  -15.96450043 -5.676780224 -15.56669998
upperneck  27.09070015 -5.973460197 7.966060162
head  12.36159992 -3.290469885 4.743710041
lclavicle  0 -5.34481991e-014 2.981770104e-014
lhumerus  -40.02199936 10.71700001 81.30750275
lradius  -2.839237431e-031 -2.099422504e-031 36.48040009
lwrist  -1.412450015e-030 -1.765562519e-031 3.063519955
lhand  -7.205079685e-031 -11.42739964 31.01479912
lfingers  90 7.125020027 -90
lthumb  93.99575681 14.96792004 74.86617763
rclavicle  0 -5.34481991e-014 2.981770104e-014
rhumerus  -33.85889816 -10.14280033 -77.67990112
rradius  3.140967135e-031 1.613434069e-031 27.18840027
rwrist  -3.531125038e-031 -0 6.511199951
rhand  -0 -19.0387001 11.76939964
rfingers  -90 -7.125020027 -90
rthumb  -86.32549148 -26.68075624 -81.86054645
rfemur  -23.19440079 -8.619460106 14.33349991
rtibia  -0 0 67.17259979
rfoot  -0 -7.030819893 -9.73320961
rtoes  1.936937284 19.90980971 -95.67140395
lfemur  1.619339943 3.045020103 -26.90620041
ltibia  -0 0 25.84959984
lfoot  4.569727469e-032 -15.0053997 -6.4541502
ltoes  -5.669559005 -19.21121008 -106.7888658
71
root  25.11933394 39.29933263 34.81600003 -6.929490089 5.806610107 4.653570175
lowerback  10.54629993 0.06462579966 -5.990779877
upperback  1.786419988 -0.5385829806 1.009649992
thorax  -3.980429888 -0.182765007 4.513249874
lowerneck  -16.02939987 -5.706059933 -15.46510029
upperneck  27.16150093 -6.034100056 7.94919014
head  12.40690041 -3.309740067 4.711420059
lclavicle  0 -5.34481991e-014 2.981770104e-014
lhumerus  -39.71889877 10.0848999 81.50050354
lradius  -2.814798991e-031 -2.132076611e-031 37.14220047
lwrist  -3.531125038e-031 -1.765562519e-031 3.407730103
lhand  -7.182120485e-031 -10.48270035 31.82830048
lfingers  90 7.125020027 -90
lthumb  94.45211972 15.61854759 73.8702999
rclavicle  0 -5.34481991e-014 2.981770104e-014
rhumerus  -34.10520172 -10.88659954 -77.16999817
rradius  3.157958e-031 1.579919399e-031 26.57869911
rwrist  3.531125038e-031 -0 6.955959797
rhand  -0 -19.22669983 11.49680042
rfingers  -90 -7.125020027 -90
rthumb  -86.45950419 -26.41620703 -82.08247603
rfemur  -23.69860077 -9.117670059 13.61940002
rtibia  -0 0 65.52639771
rfoot  -0 -7.90045023 -9.922160149
rtoes  1.714154229 19.92940416 -95.01751472
lfemur  2.220249891 2.983999968 -27.5590992
ltibia  -0 0 25.69879913
lfoot  9.157082185e-032 -15.41149998 -6.67222023
ltoes  -5.23645018 -19.32946996 -105.4765691
72
root  25.10888858 39.28755512 35.11600044 -6.728010178 5.962170124 4.50756979
lowerback  10.49730015 -0.0006134019932 -5.981100082
upperback  1.688279986 -0.6185879707 1.122720003
thorax  -4.045400143 -0.2173500061 4.638239861
lowerneck  -15.7670002 -5.651400089 -15.44950008
upperneck  26.92060089 -6.012229919 8.010180473
head  12.25419998 -3.290139914 4.731780052
lclavicle  0 -5.34481991e-014 2.981770104e-014
lhumerus  -39.44779968 9.603369713 81.66940308
lradius  -2.787149344e-031 -2.168096532e-031 37.87900162
lwrist  -1.412450015e-030 -0 3.539839983
lhand  -1.428683197e-030 -8.64536953 33.01440048
lfingers  90 7.125020027 -90
lthumb  95.2770023 16.46273695 71.94829446
rclavicle  0 -5.34481991e-014 2.981770104e-014
rhumerus  -34.1867981 -11.59319973 -76.61869812
rradius  3.179457303e-031 1.536195071e-031 25.78809929
rwrist  7.062250077e-031 -0 7.30632019
rhand  -0 -19.46640015 11.9968996
rfingers  -90 -7.125020027 -90
rthumb  -86.50065191 -26.91825002 -82.30730526
rfemur  -24.4109993 -9.053079605 14.00319958
rtibia  -0 0 63.60020065
rfoot  -0 -8.65625 -10.51879978
rtoes  1.950387978 19.90854936 -95.71090322
lfemur  2.559410095 2.926369905 -27.32749939
ltibia  -0 0 25.46380043
lfoot  9.16927008e-032 -15.68540001 -6.798399925
ltoes  -5.615890986 -19.226421 -106.6258288
73
root  25.08955527 39.28511011 35.41177765 -6.518710136 5.904729843 4.132800102
lowerback  10.4907999 -0.02711449936 -5.774089813
upperback  1.539270043 -0.6256089807 1.302479982
thorax  -4.197850227 -0.2139990032 4.713049889
lowerneck  -15.50489998 -5.638679981 -15.52670002
upperneck  26.72380066 -6.063930035 8.196310043
head  12.13819981 -3.299380064 4.806359768
lclavicle  0 -5.34481991e-014 2.981770104e-014
lhumerus  -39.29700089 9.156290054 81.77210236
lradius  -2.755092053e-031 -2.208690068e-031 38.71829987
lwrist  -3.531125038e-031 -1.765562519e-031 3.60552001
lhand  -7.246739408e-031 -12.95619965 27.05739975
lfingers  90 7.125020027 -90
lthumb  92.67641817 11.31550065 76.59940348
rclavicle  0 -5.34481991e-014 2.981770104e-014
rhumerus  -34.49890137 -12.15130043 -76.1529007
rradius  3.19135843e-031 1.511315787e-031 25.34059906
rwrist  1.059337512e-030 -7.062250077e-031 7.586430073
rhand  -0 -19.39690018 12.03509998
rfingers  -90 -7.125020027 -90
rthumb  -86.46056496 -26.9541701 -82.22950958
rfemur  -25.07859993 -8.711660385 14.72609997
rtibia  -0 0 61.41970062
rfoot  -0 -9.272979736 -11.20530033
rtoes  2.065114303 19.89744088 -96.0479078
lfemur  2.923680067 2.838649988 -26.83440018
ltibia  -0 0 25.16550064
lfoot  9.178464103e-032 -15.88850021 -6.705920219
ltoes  -5.205563629 -19.33751415 -105.3832749
74
root  25.09888927 39.27822263 35.73311032 -6.406270027 5.985909939 4.270249844
lowerback  10.52869987 -0.09315349907 -5.914330006
upperback  1.518139958 -0.733258009 1.276559949
thorax  -4.226270199 -0.2638730109 4.781070232
lowerneck  -15.61349964 -5.685800076 -15.50580025
upperneck  26.71150017 -6.15929985 8.325409889
head  12.17199993 -3.322170019 4.836649895
lclavicle  0 -5.34481991e-014 2.981770104e-014
lhumerus  -39.05950165 8.663829803 81.85169983
lradius  -2.718994204e-031 -2.25297904e-031 39.645401
lwrist  -1.412450015e-030 -1.765562519e-031 3.892950058
lhand  -7.216984371e-031 -11.88589954 28.76379967
lfingers  90 7.125020027 -90
lthumb  93.30108175 12.85038529 75.46125331
rclavicle  0 -5.34481991e-014 2.981770104e-014
rhumerus  -34.89789963 -12.46529961 -75.91790009
rradius  3.190117594e-031 1.513933214e-031 25.38759995
rwrist  3.531125038e-031 -3.531125038e-031 7.78373003
rhand  -0 -19.19389915 11.90919971
rfingers  -90 -7.125020027 -90
rthumb  -86.37972477 -26.82365924 -82.01849789
rfemur  -25.50790024 -8.709560394 14.67249966
rtibia  -0 0 59.02410126
rfoot  -0 -9.265179634 -11.65159988
rtoes  1.944567698 19.90909581 -95.69381111
lfemur  3.513329983 2.765079975 -26.97430038
ltibia  -0 0 24.91230011
lfoot  9.190387775e-032 -16.14760017 -6.554709911
ltoes  -5.604227954 -19.22970564 -106.5904143
